<?xml version="1.0" encoding="UTF-8"?>
<svg xmlns="http://www.w3.org/2000/svg" xmlns:xlink="http://www.w3.org/1999/xlink" width="133px" height="100px" viewBox="0 0 133 100" version="1.1">
<defs>
<clipPath id="clip1">
  <path d="M 16.667969 44.058594 L 91.867188 44.058594 L 91.867188 55.875 L 16.667969 55.875 Z M 16.667969 44.058594 "/>
</clipPath>
<clipPath id="clip2">
  <path d="M 98.496094 41.800781 L 116.210938 41.800781 L 116.210938 58.132812 L 98.496094 58.132812 Z M 98.496094 41.800781 "/>
</clipPath>
</defs>
<g id="surface1">
<rect x="0" y="0" width="133" height="100" style="fill:rgb(100%,100%,100%);fill-opacity:1;stroke:none;"/>
<path style=" stroke:none;fill-rule:nonzero;fill:rgb(36.470588%,52.941176%,100%);fill-opacity:1;" d="M 95.183594 42.875 C 95.476562 42.875 95.714844 43.320312 95.714844 43.875 L 95.714844 56.058594 C 95.714844 56.609375 95.476562 57.054688 95.183594 57.054688 C 94.886719 57.054688 94.648438 56.609375 94.648438 56.058594 L 94.648438 43.875 C 94.648438 43.320312 94.886719 42.875 95.183594 42.875 Z M 95.183594 42.875 "/>
<g clip-path="url(#clip1)" clip-rule="nonzero">
<path style=" stroke:none;fill-rule:nonzero;fill:rgb(36.470588%,52.941176%,100%);fill-opacity:1;" d="M 16.773438 44.296875 L 25.441406 44.28125 L 25.363281 47.660156 L 22.992188 47.757812 L 22.390625 55.316406 L 19.03125 55.488281 L 19.046875 47.933594 L 16.679688 48.058594 Z M 31.707031 44.265625 L 34.808594 54.996094 L 30.863281 55.503906 L 30.386719 53.707031 L 28.574219 53.707031 L 28.179688 55.503906 L 24.121094 55.105469 L 27.285156 44.488281 Z M 28.90625 51.261719 L 30.097656 51.261719 L 29.496094 48.492188 Z M 44.230469 52.84375 C 44.230469 53.28125 44.148438 53.664062 43.988281 53.984375 C 43.828125 54.300781 43.609375 54.570312 43.339844 54.796875 C 43.070312 55.019531 42.757812 55.203125 42.402344 55.339844 C 42.050781 55.484375 41.6875 55.59375 41.304688 55.675781 C 40.921875 55.753906 40.539062 55.804688 40.152344 55.832031 C 39.769531 55.859375 39.410156 55.875 39.078125 55.875 C 38.75 55.875 38.40625 55.863281 38.054688 55.835938 C 37.703125 55.8125 37.351562 55.773438 37 55.714844 C 36.652344 55.65625 36.308594 55.578125 35.96875 55.476562 C 35.628906 55.378906 35.308594 55.257812 35.007812 55.105469 L 34.992188 44.839844 C 35.285156 44.71875 35.601562 44.609375 35.9375 44.507812 C 36.269531 44.410156 36.609375 44.328125 36.957031 44.261719 C 37.304688 44.195312 37.652344 44.144531 37.996094 44.109375 C 38.339844 44.074219 38.675781 44.058594 38.996094 44.058594 C 39.375 44.058594 39.757812 44.082031 40.140625 44.128906 C 40.523438 44.175781 40.894531 44.257812 41.25 44.371094 C 41.605469 44.480469 41.933594 44.625 42.242188 44.804688 C 42.550781 44.980469 42.820312 45.199219 43.050781 45.460938 C 43.28125 45.722656 43.460938 46.023438 43.589844 46.367188 C 43.71875 46.714844 43.785156 47.113281 43.785156 47.566406 C 43.785156 47.863281 43.742188 48.140625 43.660156 48.402344 C 43.574219 48.664062 43.453125 48.898438 43.292969 49.105469 C 43.132812 49.3125 42.9375 49.488281 42.710938 49.632812 C 42.484375 49.78125 42.226562 49.886719 41.9375 49.957031 C 42.285156 50.046875 42.597656 50.179688 42.882812 50.355469 C 43.164062 50.53125 43.40625 50.742188 43.605469 50.992188 C 43.804688 51.242188 43.960938 51.523438 44.070312 51.835938 C 44.175781 52.152344 44.230469 52.488281 44.230469 52.84375 Z M 40.191406 48.296875 C 40.191406 48.144531 40.15625 48.011719 40.09375 47.902344 C 40.03125 47.792969 39.953125 47.707031 39.859375 47.640625 C 39.765625 47.570312 39.667969 47.519531 39.558594 47.484375 C 39.449219 47.453125 39.351562 47.441406 39.269531 47.441406 C 39.160156 47.441406 39.058594 47.453125 38.957031 47.484375 C 38.859375 47.519531 38.761719 47.554688 38.664062 47.597656 L 38.617188 49.367188 C 38.738281 49.367188 38.890625 49.355469 39.070312 49.335938 C 39.25 49.316406 39.421875 49.269531 39.589844 49.195312 C 39.757812 49.125 39.898438 49.019531 40.015625 48.875 C 40.132812 48.738281 40.191406 48.542969 40.191406 48.296875 Z M 39.0625 50.898438 C 38.910156 50.898438 38.757812 50.914062 38.617188 50.945312 L 38.582031 52.761719 C 38.664062 52.777344 38.742188 52.792969 38.816406 52.808594 C 38.898438 52.820312 38.972656 52.828125 39.046875 52.828125 C 39.15625 52.828125 39.277344 52.816406 39.410156 52.792969 C 39.542969 52.765625 39.667969 52.71875 39.785156 52.648438 C 39.902344 52.574219 40 52.480469 40.074219 52.355469 C 40.152344 52.234375 40.191406 52.074219 40.191406 51.871094 C 40.191406 51.667969 40.152344 51.503906 40.074219 51.378906 C 40 51.25 39.90625 51.148438 39.792969 51.078125 C 39.679688 51.003906 39.558594 50.957031 39.425781 50.933594 C 39.296875 50.910156 39.171875 50.898438 39.0625 50.898438 Z M 48.398438 51.457031 L 51.625 51.457031 L 51.289062 54.996094 L 44.597656 55.519531 L 44.851562 44.136719 L 48.984375 44.136719 Z M 60.871094 49.238281 C 60.871094 49.703125 60.839844 50.164062 60.777344 50.625 C 59.871094 50.683594 58.96875 50.78125 58.074219 50.910156 C 57.175781 51.042969 56.28125 51.167969 55.382812 51.296875 C 55.523438 51.679688 55.738281 51.984375 56.03125 52.214844 C 56.328125 52.441406 56.679688 52.554688 57.085938 52.554688 C 57.300781 52.554688 57.53125 52.515625 57.78125 52.433594 C 58.03125 52.355469 58.28125 52.257812 58.53125 52.136719 C 58.78125 52.019531 59.019531 51.890625 59.25 51.75 C 59.476562 51.613281 59.675781 51.488281 59.839844 51.378906 L 59.453125 54.996094 C 59.25 55.152344 59.023438 55.289062 58.785156 55.402344 C 58.542969 55.515625 58.292969 55.605469 58.03125 55.675781 C 57.773438 55.742188 57.511719 55.792969 57.246094 55.824219 C 56.980469 55.855469 56.722656 55.875 56.464844 55.875 C 55.941406 55.875 55.460938 55.800781 55.027344 55.65625 C 54.59375 55.515625 54.199219 55.3125 53.847656 55.054688 C 53.496094 54.796875 53.1875 54.492188 52.921875 54.144531 C 52.65625 53.792969 52.4375 53.410156 52.261719 52.992188 C 52.085938 52.578125 51.953125 52.140625 51.863281 51.679688 C 51.769531 51.214844 51.726562 50.75 51.726562 50.277344 C 51.726562 49.78125 51.769531 49.289062 51.863281 48.792969 C 51.953125 48.300781 52.089844 47.824219 52.273438 47.367188 C 52.457031 46.910156 52.683594 46.484375 52.964844 46.09375 C 53.242188 45.703125 53.566406 45.363281 53.9375 45.070312 C 54.308594 44.777344 54.730469 44.550781 55.199219 44.386719 C 55.667969 44.222656 56.183594 44.136719 56.75 44.136719 C 57.226562 44.136719 57.65625 44.203125 58.042969 44.335938 C 58.433594 44.464844 58.78125 44.644531 59.085938 44.875 C 59.390625 45.105469 59.65625 45.382812 59.882812 45.699219 C 60.105469 46.019531 60.292969 46.367188 60.4375 46.746094 C 60.582031 47.128906 60.691406 47.53125 60.765625 47.953125 C 60.835938 48.375 60.871094 48.804688 60.871094 49.238281 Z M 57.6875 49 L 57.6875 48.824219 C 57.6875 48.675781 57.675781 48.523438 57.644531 48.367188 C 57.609375 48.210938 57.558594 48.066406 57.488281 47.9375 C 57.414062 47.8125 57.320312 47.707031 57.203125 47.625 C 57.089844 47.542969 56.945312 47.5 56.765625 47.5 C 56.558594 47.5 56.371094 47.558594 56.207031 47.675781 C 56.046875 47.789062 55.90625 47.929688 55.789062 48.101562 C 55.671875 48.277344 55.578125 48.464844 55.503906 48.667969 C 55.429688 48.867188 55.375 49.050781 55.335938 49.222656 Z M 64.320312 44.457031 L 72.988281 44.441406 L 72.910156 47.820312 L 70.539062 47.917969 L 70.25 55.316406 L 66.898438 55.488281 L 66.59375 48.09375 L 64.226562 48.21875 Z M 79.332031 44.265625 L 82.433594 54.996094 L 78.488281 55.503906 L 78.011719 53.707031 L 76.199219 53.707031 L 75.800781 55.503906 L 71.746094 55.105469 L 74.914062 44.488281 Z M 76.535156 51.261719 L 77.726562 51.261719 L 77.121094 48.492188 Z M 91.855469 52.84375 C 91.855469 53.28125 91.773438 53.664062 91.613281 53.984375 C 91.449219 54.300781 91.234375 54.570312 90.964844 54.796875 C 90.695312 55.019531 90.382812 55.203125 90.03125 55.339844 C 89.675781 55.484375 89.308594 55.59375 88.929688 55.675781 C 88.546875 55.753906 88.164062 55.804688 87.78125 55.832031 C 87.394531 55.859375 87.035156 55.875 86.703125 55.875 C 86.375 55.875 86.035156 55.863281 85.679688 55.835938 C 85.328125 55.8125 84.976562 55.773438 84.628906 55.714844 C 84.277344 55.65625 83.933594 55.578125 83.59375 55.476562 C 83.253906 55.378906 82.933594 55.257812 82.632812 55.105469 L 82.613281 44.839844 C 82.914062 44.71875 83.226562 44.609375 83.5625 44.507812 C 83.898438 44.410156 84.238281 44.328125 84.582031 44.261719 C 84.929688 44.195312 85.277344 44.144531 85.621094 44.109375 C 85.964844 44.074219 86.300781 44.058594 86.625 44.058594 C 87 44.058594 87.378906 44.082031 87.765625 44.128906 C 88.148438 44.175781 88.519531 44.257812 88.875 44.371094 C 89.230469 44.480469 89.558594 44.625 89.867188 44.804688 C 90.175781 44.980469 90.445312 45.199219 90.675781 45.460938 C 90.90625 45.722656 91.085938 46.023438 91.214844 46.367188 C 91.34375 46.714844 91.410156 47.113281 91.410156 47.566406 C 91.410156 47.863281 91.367188 48.140625 91.28125 48.402344 C 91.195312 48.664062 91.074219 48.898438 90.917969 49.105469 C 90.757812 49.3125 90.566406 49.488281 90.335938 49.632812 C 90.109375 49.78125 89.851562 49.886719 89.566406 49.957031 C 89.910156 50.046875 90.222656 50.179688 90.507812 50.355469 C 90.792969 50.53125 91.03125 50.742188 91.230469 50.992188 C 91.429688 51.242188 91.582031 51.523438 91.691406 51.835938 C 91.800781 52.152344 91.855469 52.488281 91.855469 52.84375 Z M 87.816406 48.296875 C 87.816406 48.144531 87.785156 48.011719 87.722656 47.902344 C 87.65625 47.792969 87.578125 47.707031 87.488281 47.640625 C 87.394531 47.570312 87.292969 47.519531 87.183594 47.484375 C 87.074219 47.453125 86.980469 47.441406 86.894531 47.441406 C 86.789062 47.441406 86.683594 47.453125 86.582031 47.484375 C 86.480469 47.519531 86.382812 47.554688 86.289062 47.597656 L 86.242188 49.367188 C 86.363281 49.367188 86.515625 49.355469 86.695312 49.335938 C 86.875 49.316406 87.050781 49.269531 87.21875 49.195312 C 87.382812 49.125 87.523438 49.019531 87.640625 48.875 C 87.757812 48.738281 87.816406 48.542969 87.816406 48.296875 Z M 86.6875 50.898438 C 86.53125 50.898438 86.382812 50.914062 86.242188 50.945312 L 86.210938 52.761719 C 86.289062 52.777344 86.367188 52.792969 86.445312 52.808594 C 86.519531 52.820312 86.597656 52.828125 86.667969 52.828125 C 86.78125 52.828125 86.90625 52.816406 87.039062 52.792969 C 87.171875 52.765625 87.292969 52.71875 87.410156 52.648438 C 87.527344 52.574219 87.625 52.480469 87.703125 52.355469 C 87.777344 52.234375 87.816406 52.074219 87.816406 51.871094 C 87.816406 51.667969 87.777344 51.503906 87.703125 51.378906 C 87.625 51.25 87.53125 51.148438 87.417969 51.078125 C 87.308594 51.003906 87.1875 50.957031 87.054688 50.933594 C 86.921875 50.910156 86.800781 50.898438 86.6875 50.898438 Z M 86.6875 50.898438 "/>
</g>
<g clip-path="url(#clip2)" clip-rule="nonzero">
<path style=" stroke:none;fill-rule:nonzero;fill:rgb(36.470588%,52.941176%,100%);fill-opacity:1;" d="M 116.210938 43.992188 C 116.210938 42.78125 113.386719 41.800781 107.355469 41.800781 C 101.320312 41.800781 98.496094 42.78125 98.496094 43.992188 C 98.496094 45.117188 100.664062 46.042969 106.113281 46.167969 L 106.113281 55.871094 C 105.1875 56.066406 104.550781 56.46875 104.550781 56.9375 C 104.550781 57.597656 105.804688 58.128906 107.355469 58.128906 C 108.902344 58.128906 110.15625 57.597656 110.15625 56.9375 C 110.15625 56.46875 109.519531 56.066406 108.59375 55.871094 L 108.59375 46.167969 C 114.042969 46.042969 116.210938 45.117188 116.210938 43.992188 Z M 116.210938 43.992188 "/>
</g>
</g>
</svg>
